<?xml version="1.0" encoding="iso-8859-1"?>
<!-- Generator: Adobe Illustrator 19.0.0, SVG Export Plug-In . SVG Version: 6.00 Build 0)  -->
<svg version="1.1" id="Layer_1" xmlns="http://www.w3.org/2000/svg" xmlns:xlink="http://www.w3.org/1999/xlink" x="0px" y="0px"
	 viewBox="0 0 512 512" style="enable-background:new 0 0 512 512;" xml:space="preserve">
<g>
	<g>
		<path d="M501.801,71.394H10.199C4.566,71.394,0,75.96,0,81.593v284.67c0,5.632,4.566,10.199,10.199,10.199h284.825v53.944
			c0,3.905,2.231,7.468,5.742,9.174c3.514,1.706,7.692,1.258,10.761-1.158l30.01-23.6l30.01,23.6
			c1.833,1.441,4.06,2.183,6.306,2.183c1.516,0,3.039-0.338,4.455-1.025c3.513-1.706,5.742-5.269,5.742-9.174v-53.944h113.75
			c5.633,0,10.199-4.567,10.199-10.199V81.593C512,75.96,507.434,71.394,501.801,71.394z M367.653,409.409l-19.81-15.578
			c-3.7-2.911-8.909-2.911-12.609,0l-19.811,15.578v-61.888c8.019,3.45,16.846,5.37,26.115,5.37s18.096-1.919,26.115-5.37V409.409z
			 M341.538,332.494c-25.307,0-45.896-20.589-45.896-45.896c0-25.307,20.589-45.896,45.896-45.896
			c25.307,0,45.896,20.589,45.896,45.896C387.434,311.905,366.845,332.494,341.538,332.494z M341.538,220.303
			c-20.019,0-37.98,8.931-50.145,23.005H138.199c-5.633,0-10.199,4.567-10.199,10.199s4.566,10.199,10.199,10.199H279.32
			c-2.634,7.138-4.077,14.849-4.077,22.891c0,12.346,3.402,23.908,9.304,33.815H97.598c-4.136-21.37-21.016-38.25-42.387-42.387
			V169.831c21.37-4.137,38.251-21.017,42.387-42.388h316.804c4.136,21.37,21.016,38.251,42.387,42.388v108.195
			c-21.37,4.137-38.251,21.015-42.387,42.387h-15.873c5.901-9.908,9.304-21.47,9.304-33.815
			C407.833,250.043,378.093,220.303,341.538,220.303z M491.602,356.064H388.052v-15.253h35.575c5.633,0,10.199-4.567,10.199-10.199
			c0-18.285,14.877-33.162,33.162-33.162c5.633,0,10.199-4.567,10.199-10.199V160.607c0-5.632-4.566-10.199-10.199-10.199
			c-18.285,0-33.162-14.877-33.162-33.163c0-5.632-4.566-10.199-10.199-10.199H88.373c-5.633,0-10.199,4.567-10.199,10.199
			c0,18.286-14.877,33.163-33.162,33.163c-5.633,0-10.199,4.567-10.199,10.199v126.646c0,5.632,4.566,10.199,10.199,10.199
			c18.285,0,33.162,14.877,33.162,33.162c0,5.632,4.566,10.199,10.199,10.199h206.651v15.253H20.398V91.793h471.203V356.064z"/>
	</g>
</g>
<g>
	<g>
		<path d="M373.801,184.152h-2.685c-5.633,0-10.199,4.567-10.199,10.199c0,5.632,4.566,10.199,10.199,10.199h2.685
			c5.633,0,10.199-4.567,10.199-10.199C384,188.719,379.434,184.152,373.801,184.152z"/>
	</g>
</g>
<g>
	<g>
		<path d="M336.438,184.152H138.199c-5.633,0-10.199,4.567-10.199,10.199c0,5.632,4.566,10.199,10.199,10.199h198.239
			c5.633,0,10.199-4.567,10.199-10.199C346.637,188.719,342.071,184.152,336.438,184.152z"/>
	</g>
</g>
<g>
</g>
<g>
</g>
<g>
</g>
<g>
</g>
<g>
</g>
<g>
</g>
<g>
</g>
<g>
</g>
<g>
</g>
<g>
</g>
<g>
</g>
<g>
</g>
<g>
</g>
<g>
</g>
<g>
</g>
</svg>
