<?xml version="1.0" encoding="iso-8859-1"?>
<!-- Generator: Adobe Illustrator 16.0.0, SVG Export Plug-In . SVG Version: 6.00 Build 0)  -->
<!DOCTYPE svg PUBLIC "-//W3C//DTD SVG 1.1//EN" "http://www.w3.org/Graphics/SVG/1.1/DTD/svg11.dtd">
<svg version="1.1" id="Capa_1" xmlns="http://www.w3.org/2000/svg" xmlns:xlink="http://www.w3.org/1999/xlink" x="0px" y="0px"
	 width="441.71px" height="441.71px" viewBox="0 0 441.71 441.71" style="enable-background:new 0 0 441.71 441.71;"
	 xml:space="preserve">
<g>
	<g>
		<path d="M398.722,327.493c-0.785-42.497-26.975-82.316-69.076-98.279c-42.114-15.964-88.12-3.502-116.869,27.799l-42.988-16.303
			l-28.108,74.163l42.988,16.296c0.78,42.495,26.969,82.32,69.079,98.276c42.103,15.963,88.099,3.502,116.859-27.797l42.99,16.295
			l28.112-74.154L398.722,327.493z M267.799,392.367c-20.891-7.923-35.501-25.193-41.025-45.235l101.732,38.554
			C311.083,397.041,288.692,400.28,267.799,392.367z M254.888,272.969c17.421-11.349,39.801-14.6,60.693-6.677
			c20.905,7.924,35.502,25.193,41.029,45.243L254.888,272.969z"/>
		<path d="M189.77,408.592H22.795c4.074-57.352,39.039-109.205,91.426-134.178c3.652-1.741,6.084-5.32,6.357-9.347
			c0.273-4.044-1.652-7.913-5.031-10.135c-35.021-22.993-55.92-61.674-55.92-103.464c0-68.233,55.504-123.738,123.732-123.738
			c68.232,0,123.74,55.51,123.74,123.738c0,15.313-2.789,30.301-8.312,44.55c-2.227,5.773,0.63,12.26,6.402,14.495
			c5.789,2.225,12.269-0.631,14.507-6.404c6.522-16.843,9.828-34.556,9.828-52.646c0-80.589-65.564-146.151-146.16-146.151
			c-80.581,0-146.146,65.562-146.146,146.151c0,43.25,18.955,83.677,51.473,111.295C34.288,295.688,0,355.524,0,419.793
			C0,425.977,5.021,431,11.207,431H189.78c6.186,0,11.208-5.023,11.208-11.207C200.987,413.611,195.956,408.592,189.77,408.592z"/>
	</g>
</g>
<g>
</g>
<g>
</g>
<g>
</g>
<g>
</g>
<g>
</g>
<g>
</g>
<g>
</g>
<g>
</g>
<g>
</g>
<g>
</g>
<g>
</g>
<g>
</g>
<g>
</g>
<g>
</g>
<g>
</g>
</svg>
