<?xml version='1.0' encoding='iso-8859-1'?>
<svg version="1.1" xmlns="http://www.w3.org/2000/svg" viewBox="0 0 490.05 490.05" xmlns:xlink="http://www.w3.org/1999/xlink" enable-background="new 0 0 490.05 490.05">
  <path d="m185.021,475.05c0,8.284-6.716,15-15,15h-154.996c-8.284,0-15-6.716-15-15s6.716-15 15-15h154.996c8.284,0 15,6.716 15,15zm305.004-382.503c0,24.792-9.599,48.043-27.026,65.471-4.23,4.231-11.885,9.135-27.417,18.947-29.223,18.46-76.686,48.444-121.441,90.682l38.769,38.767c11.358,11.358 17.614,26.507 17.613,42.655 0,16.147-6.257,31.295-17.615,42.654l-3.304,3.306c-0.001,0-0.002,0.001-0.003,0.002-21.697,21.695-55.039,24.821-80.089,9.37l-33.054,33.053c-2.929,2.928-6.769,4.393-10.606,4.393-3.839,0-7.677-1.464-10.606-4.393l-162.645-162.637c-2.813-2.813-4.394-6.628-4.394-10.607s1.58-7.794 4.394-10.607l33.051-33.049c-6.258-10.139-9.604-21.864-9.604-34.124 0.001-17.4 6.741-33.723 18.98-45.962l3.311-3.309c23.519-23.518 61.787-23.52 85.308,0l38.769,38.767c42.247-44.758 72.229-92.217 90.692-121.441 9.81-15.528 14.713-23.18 18.943-27.41 36.102-36.101 94.846-36.101 130.947,0 17.428,17.428 27.027,40.68 27.027,65.472zm-242.961,291.875l-141.43-141.423-21.213,21.211 141.43,141.424 21.213-21.212zm-84.63-226.049c-5.91-5.911-13.676-8.867-21.44-8.867-7.766,0-15.53,2.956-21.443,8.868l-3.311,3.31c-6.571,6.57-10.19,15.36-10.191,24.747 0,9.387 3.619,18.175 10.191,24.747l162.647,162.64c13.645,13.645 35.849,13.647 49.497,0.001l3.307-3.308c5.695-5.695 8.831-13.309 8.831-21.443 0.001-8.134-3.134-15.748-8.826-21.44l-169.262-169.255zm297.591-65.826c0-16.779-6.478-32.497-18.239-44.258-24.405-24.404-64.116-24.404-88.521,0-2.147,2.202-8.866,12.836-14.794,22.22-19.152,30.314-50.299,79.617-94.832,126.64l49.279,49.277c47.023-44.528 96.327-75.673 126.643-94.823 9.385-5.929 20.022-12.649 22.231-14.803 11.755-11.757 18.233-27.474 18.233-44.253z"/>
</svg>
